<svg xmlns="http://www.w3.org/2000/svg" width="39" height="42"><g transform="translate(-354.106 -495.823)"><path d="M369.106 536.323v-1.5h-6v-3h-3v-3h-3v-3h-3v-18h3v-6h3v-3h6v-3h15v3h6v3h3v6h3v18h-3v3h-3v3h-3v3h-6v3h-9v-1.5z" fill="#feeed8"/><path d="M369.106 536.323v-1.5h-6v-3h-3v-3h-3v-3h-3v-18h3v-6h3v-3h6v-3h15v3h6v3h3v6h3v18h-3v3h-3v3h-3v3h-6v3h-9v-1.5zm9-6v-1.5h6v-3h3v-21h-6v-3h-3v6h3v15h-3v6h-3v3h3v-1.5z" fill="#a98566"/><path d="M369.106 536.323v-1.5h9v-3h6v-3h3v-3h3v-18h-3v-6h-6v-3h-9v3h3v6h3v15h-3v6h-3v3h-6v3h-3v-3h-3v-3h-3v-3h-3v-18h3v-6h3v-3h6v-3h15v3h6v3h3v6h3v18h-3v3h-3v3h-3v3h-6v3h-9v-1.5z" fill="#493323"/><path d="M354.106 515.323v-7.5h3v-6h3v-3h6v3h3v14h-3v4h-3v3h-9v-7.5z" fill="#332418"/></g></svg>