<?xml version="1.0" encoding="UTF-8" standalone="no"?>
<!-- Created with Inkscape (http://www.inkscape.org/) -->

<svg
   xmlns:dc="http://purl.org/dc/elements/1.1/"
   xmlns:cc="http://creativecommons.org/ns#"
   xmlns:rdf="http://www.w3.org/1999/02/22-rdf-syntax-ns#"
   xmlns:svg="http://www.w3.org/2000/svg"
   xmlns="http://www.w3.org/2000/svg"
   version="1.1"
   width="144"
   height="87"
   id="svg2">
  <defs
     id="defs4" />
  <metadata
     id="metadata7">
    <rdf:RDF>
      <cc:Work
         rdf:about="">
        <dc:format>image/svg+xml</dc:format>
        <dc:type
           rdf:resource="http://purl.org/dc/dcmitype/StillImage" />
        <dc:title></dc:title>
      </cc:Work>
    </rdf:RDF>
  </metadata>
  <g
     transform="translate(-348.69294,-484.85454)"
     id="layer1">
    <g
       transform="translate(4.5456868,-0.50507584)"
       id="g3093">
      <path
         d="m 374.14725,570.85962 0,-1.5 -3,0 -3,0 0,-1.5 0,-1.5 -4.5,0 -4.5,0 0,-1.5 0,-1.5 -3,0 -3,0 0,-1.5 0,-1.5 -1.5,0 -1.5,0 0,-1.5 0,-1.5 -1.5,0 -1.5,0 0,-1.5 0,-1.5 -1.5,0 -1.5,0 0,-7.5 0,-7.5 1.5,0 1.5,0 0,-1.5 0,-1.5 -1.5,0 -1.5,0 0,-4.5 0,-4.5 1.5,0 1.5,0 0,-1.5 0,-1.5 1.5,0 1.5,0 0,-4.5 0,-4.5 -1.5,0 -1.5,0 0,-1.5 0,-1.5 -1.5,0 -1.5,0 0,-4.5 0,-4.5 1.5,0 1.5,0 0,-1.5 0,-1.5 1.5,0 1.5,0 0,-1.5 0,-1.5 1.5,0 1.5,0 0,-1.5 0,-1.5 1.5,0 1.5,0 0,-1.5 0,-1.5 7.5,0 7.5,0 0,1.5 0,1.5 3,0 3,0 0,-1.5 0,-1.5 10.5,0 10.5,0 0,1.5 0,1.5 3,0 3,0 0,1.5 0,1.5 3,0 3,0 0,1.5 0,1.5 1.5,0 1.5,0 0,1.5 0,1.5 1.5,0 1.5,0 0,1.5 0,1.5 1.5,0 1.5,0 0,4.5 0,4.5 -1.5,0 -1.5,0 0,4.5 0,4.5 1.5,0 1.5,0 0,1.5 0,1.5 1.5,0 1.5,0 0,4.5 0,4.5 -1.5,0 -1.5,0 0,1.5 0,1.5 1.5,0 1.5,0 0,7.5 0,7.5 -1.5,0 -1.5,0 0,1.5 0,1.5 -1.5,0 -1.5,0 0,1.5 0,1.5 -1.5,0 -1.5,0 0,1.5 0,1.5 -3,0 -3,0 0,1.5 0,1.5 -4.5,0 -4.5,0 0,1.5 0,1.5 -3,0 -3,0 0,1.5 0,1.5 -3,0 -3,0 0,-1.5 0,-1.5 -3,0 -3,0 0,1.5 0,1.5 -3,0 -3,0 0,-1.5 z m 57,-33 0,-4.5 1.5,0 1.5,0 0,-1.5 0,-1.5 -1.5,0 -1.5,0 0,-3 0,-3 -1.5,0 -1.5,0 0,-16.5 0,-16.5 1.5,0 1.5,0 0,-1.5 0,-1.5 1.5,0 1.5,0 0,-1.5 0,-1.5 24,0 24,0 0,1.5 0,1.5 1.5,0 1.5,0 0,1.5 0,1.5 1.5,0 1.5,0 0,16.5 0,16.5 -1.5,0 -1.5,0 0,1.5 0,1.5 -1.5,0 -1.5,0 0,1.5 0,1.5 -15,0 -15,0 0,1.5 0,1.5 -1.5,0 -1.5,0 0,1.5 0,1.5 -1.5,0 -1.5,0 0,1.5 0,1.5 -1.5,0 -1.5,0 0,1.5 0,1.5 -6,0 -6,0 0,-4.5 z m 9,0 0,-1.5 1.5,0 1.5,0 0,-1.5 0,-1.5 1.5,0 1.5,0 0,-1.5 0,-1.5 1.5,0 1.5,0 0,-1.5 0,-1.5 15,0 15,0 0,-1.5 0,-1.5 1.5,0 1.5,0 0,-1.5 0,-1.5 1.5,0 1.5,0 0,-13.5 0,-13.5 -1.5,0 -1.5,0 0,-1.5 0,-1.5 -1.5,0 -1.5,0 0,-1.5 0,-1.5 -21,0 -21,0 0,1.5 0,1.5 -1.5,0 -1.5,0 0,1.5 0,1.5 -1.5,0 -1.5,0 0,13.5 0,13.5 1.5,0 1.5,0 0,3 0,3 1.5,0 1.5,0 0,4.5 0,4.5 -1.5,0 -1.5,0 0,1.5 0,1.5 3,0 3,0 0,-1.5 z m -3,-21 0,-1.5 21,0 21,0 0,1.5 0,1.5 -21,0 -21,0 0,-1.5 z m 0,-6 0,-1.5 21,0 21,0 0,1.5 0,1.5 -21,0 -21,0 0,-1.5 z m 0,-6 0,-1.5 21,0 21,0 0,1.5 0,1.5 -21,0 -21,0 0,-1.5 z m 0,-6 0,-1.5 21,0 21,0 0,1.5 0,1.5 -21,0 -21,0 0,-1.5 z"
         id="path3123"
         style="fill:#edcabc" />
      <path
         d="m 374.14725,570.85962 0,-1.5 -3,0 -3,0 0,-1.5 0,-1.5 -4.5,0 -4.5,0 0,-1.5 0,-1.5 -3,0 -3,0 0,-1.5 0,-1.5 -1.5,0 -1.5,0 0,-1.5 0,-1.5 -1.5,0 -1.5,0 0,-1.5 0,-1.5 -1.5,0 -1.5,0 0,-7.5 0,-7.5 1.5,0 1.5,0 0,-1.5 0,-1.5 -1.5,0 -1.5,0 0,-4.5 0,-4.5 1.5,0 1.5,0 0,-1.5 0,-1.5 1.5,0 1.5,0 0,-4.5 0,-4.5 -1.5,0 -1.5,0 0,-1.5 0,-1.5 -1.5,0 -1.5,0 0,-4.5 0,-4.5 1.5,0 1.5,0 0,-1.5 0,-1.5 1.5,0 1.5,0 0,-1.5 0,-1.5 1.5,0 1.5,0 0,-1.5 0,-1.5 1.5,0 1.5,0 0,-1.5 0,-1.5 7.5,0 7.5,0 0,1.5 0,1.5 3,0 3,0 0,-1.5 0,-1.5 10.5,0 10.5,0 0,1.5 0,1.5 3,0 3,0 0,1.5 0,1.5 3,0 3,0 0,1.5 0,1.5 1.5,0 1.5,0 0,1.5 0,1.5 1.5,0 1.5,0 0,1.5 0,1.5 1.5,0 1.5,0 0,4.5 0,4.5 -1.5,0 -1.5,0 0,4.5 0,4.5 1.5,0 1.5,0 0,1.5 0,1.5 1.5,0 1.5,0 0,4.5 0,4.5 -1.5,0 -1.5,0 0,1.5 0,1.5 1.5,0 1.5,0 0,7.5 0,7.5 -1.5,0 -1.5,0 0,1.5 0,1.5 -1.5,0 -1.5,0 0,1.5 0,1.5 -1.5,0 -1.5,0 0,1.5 0,1.5 -3,0 -3,0 0,1.5 0,1.5 -4.5,0 -4.5,0 0,1.5 0,1.5 -3,0 -3,0 0,1.5 0,1.5 -3,0 -3,0 0,-1.5 0,-1.5 -3,0 -3,0 0,1.5 0,1.5 -3,0 -3,0 0,-1.5 z m 6,-4.5 0,-3 -3,0 -3,0 0,1.5 0,1.5 1.5,0 1.5,0 0,1.5 0,1.5 1.5,0 1.5,0 0,-3 z m 12,1.5 0,-1.5 3,0 3,0 0,-1.5 0,-1.5 -4.5,0 -4.5,0 0,3 0,3 1.5,0 1.5,0 0,-1.5 z m -27,-7.5 0,-3 -1.5,0 -1.5,0 0,-1.5 0,-1.5 -1.5,0 -1.5,0 0,-4.5 0,-4.5 -3,0 -3,0 0,-1.5 0,-1.5 1.5,0 1.5,0 0,-1.5 0,-1.5 4.5,0 4.5,0 0,-1.5 0,-1.5 -3,0 -3,0 0,-1.5 0,-1.5 -1.5,0 -1.5,0 0,1.5 0,1.5 -1.5,0 -1.5,0 0,-1.5 0,-1.5 -1.5,0 -1.5,0 0,3 0,3 -1.5,0 -1.5,0 0,7.5 0,7.5 1.5,0 1.5,0 0,1.5 0,1.5 1.5,0 1.5,0 0,1.5 0,1.5 3,0 3,0 0,1.5 0,1.5 3,0 3,0 0,-3 z m 39,-1.5 0,-1.5 4.5,0 4.5,0 0,-1.5 0,-1.5 1.5,0 1.5,0 0,-10.5 0,-10.5 -1.5,0 -1.5,0 0,1.5 0,1.5 -1.5,0 -1.5,0 0,-1.5 0,-1.5 -3,0 -3,0 0,1.5 0,1.5 -1.5,0 -1.5,0 0,1.5 0,1.5 4.5,0 4.5,0 0,1.5 0,1.5 1.5,0 1.5,0 0,1.5 0,1.5 -3,0 -3,0 0,3 0,3 -1.5,0 -1.5,0 0,1.5 0,1.5 -1.5,0 -1.5,0 0,3 0,3 1.5,0 1.5,0 0,-1.5 z m -9,-21 0,-4.5 -7.5,0 -7.5,0 0,4.5 0,4.5 7.5,0 7.5,0 0,-4.5 z m 36,0 0,-4.5 1.5,0 1.5,0 0,-1.5 0,-1.5 -1.5,0 -1.5,0 0,-3 0,-3 -1.5,0 -1.5,0 0,-16.5 0,-16.5 1.5,0 1.5,0 0,-1.5 0,-1.5 1.5,0 1.5,0 0,-1.5 0,-1.5 24,0 24,0 0,1.5 0,1.5 1.5,0 1.5,0 0,1.5 0,1.5 1.5,0 1.5,0 0,16.5 0,16.5 -1.5,0 -1.5,0 0,1.5 0,1.5 -1.5,0 -1.5,0 0,1.5 0,1.5 -15,0 -15,0 0,1.5 0,1.5 -1.5,0 -1.5,0 0,1.5 0,1.5 -1.5,0 -1.5,0 0,1.5 0,1.5 -1.5,0 -1.5,0 0,1.5 0,1.5 -6,0 -6,0 0,-4.5 z m 9,0 0,-1.5 1.5,0 1.5,0 0,-1.5 0,-1.5 1.5,0 1.5,0 0,-1.5 0,-1.5 1.5,0 1.5,0 0,-1.5 0,-1.5 15,0 15,0 0,-1.5 0,-1.5 1.5,0 1.5,0 0,-1.5 0,-1.5 1.5,0 1.5,0 0,-13.5 0,-13.5 -1.5,0 -1.5,0 0,-1.5 0,-1.5 -1.5,0 -1.5,0 0,-1.5 0,-1.5 -21,0 -21,0 0,1.5 0,1.5 -1.5,0 -1.5,0 0,1.5 0,1.5 -1.5,0 -1.5,0 0,13.5 0,13.5 1.5,0 1.5,0 0,3 0,3 1.5,0 1.5,0 0,4.5 0,4.5 -1.5,0 -1.5,0 0,1.5 0,1.5 3,0 3,0 0,-1.5 z m -3,-21 0,-1.5 21,0 21,0 0,1.5 0,1.5 -21,0 -21,0 0,-1.5 z m 0,-6 0,-1.5 21,0 21,0 0,1.5 0,1.5 -21,0 -21,0 0,-1.5 z m 0,-6 0,-1.5 21,0 21,0 0,1.5 0,1.5 -21,0 -21,0 0,-1.5 z m 0,-6 0,-1.5 21,0 21,0 0,1.5 0,1.5 -21,0 -21,0 0,-1.5 z"
         id="path3121"
         style="fill:#cacaca" />
      <path
         d="m 374.14725,570.85962 0,-1.5 -3,0 -3,0 0,-1.5 0,-1.5 -4.5,0 -4.5,0 0,-1.5 0,-1.5 -3,0 -3,0 0,-1.5 0,-1.5 -1.5,0 -1.5,0 0,-1.5 0,-1.5 -1.5,0 -1.5,0 0,-1.5 0,-1.5 -1.5,0 -1.5,0 0,-7.5 0,-7.5 1.5,0 1.5,0 0,-1.5 0,-1.5 -1.5,0 -1.5,0 0,-4.5 0,-4.5 1.5,0 1.5,0 0,-1.5 0,-1.5 1.5,0 1.5,0 0,-4.5 0,-4.5 -1.5,0 -1.5,0 0,-1.5 0,-1.5 -1.5,0 -1.5,0 0,-4.5 0,-4.5 1.5,0 1.5,0 0,-1.5 0,-1.5 1.5,0 1.5,0 0,-1.5 0,-1.5 1.5,0 1.5,0 0,-1.5 0,-1.5 1.5,0 1.5,0 0,-1.5 0,-1.5 7.5,0 7.5,0 0,1.5 0,1.5 3,0 3,0 0,-1.5 0,-1.5 10.5,0 10.5,0 0,1.5 0,1.5 3,0 3,0 0,1.5 0,1.5 3,0 3,0 0,1.5 0,1.5 1.5,0 1.5,0 0,1.5 0,1.5 1.5,0 1.5,0 0,1.5 0,1.5 1.5,0 1.5,0 0,4.5 0,4.5 -1.5,0 -1.5,0 0,4.5 0,4.5 1.5,0 1.5,0 0,1.5 0,1.5 1.5,0 1.5,0 0,4.5 0,4.5 -1.5,0 -1.5,0 0,1.5 0,1.5 1.5,0 1.5,0 0,7.5 0,7.5 -1.5,0 -1.5,0 0,1.5 0,1.5 -1.5,0 -1.5,0 0,1.5 0,1.5 -1.5,0 -1.5,0 0,1.5 0,1.5 -3,0 -3,0 0,1.5 0,1.5 -4.5,0 -4.5,0 0,1.5 0,1.5 -3,0 -3,0 0,1.5 0,1.5 -3,0 -3,0 0,-1.5 0,-1.5 -3,0 -3,0 0,1.5 0,1.5 -3,0 -3,0 0,-1.5 z m 6,-4.5 0,-3 -3,0 -3,0 0,1.5 0,1.5 1.5,0 1.5,0 0,1.5 0,1.5 1.5,0 1.5,0 0,-3 z m 12,1.5 0,-1.5 3,0 3,0 0,-1.5 0,-1.5 -4.5,0 -4.5,0 0,3 0,3 1.5,0 1.5,0 0,-1.5 z m -27,-7.5 0,-3 -1.5,0 -1.5,0 0,-1.5 0,-1.5 -1.5,0 -1.5,0 0,-4.5 0,-4.5 -3,0 -3,0 0,-1.5 0,-1.5 1.5,0 1.5,0 0,-1.5 0,-1.5 4.5,0 4.5,0 0,-1.5 0,-1.5 -3,0 -3,0 0,-1.5 0,-1.5 -1.5,0 -1.5,0 0,-4.5 0,-4.5 -1.5,0 -1.5,0 0,4.5 0,4.5 -1.5,0 -1.5,0 0,3 0,3 -1.5,0 -1.5,0 0,7.5 0,7.5 1.5,0 1.5,0 0,1.5 0,1.5 1.5,0 1.5,0 0,1.5 0,1.5 3,0 3,0 0,1.5 0,1.5 3,0 3,0 0,-3 z m -12,-25.5 0,-1.5 1.5,0 1.5,0 0,1.5 0,1.5 -1.5,0 -1.5,0 0,-1.5 z m 51,24 0,-1.5 4.5,0 4.5,0 0,-1.5 0,-1.5 1.5,0 1.5,0 0,-10.5 0,-10.5 -1.5,0 -1.5,0 0,-4.5 0,-4.5 -1.5,0 -1.5,0 0,4.5 0,4.5 1.5,0 1.5,0 0,1.5 0,1.5 -1.5,0 -1.5,0 0,-1.5 0,-1.5 -3,0 -3,0 0,1.5 0,1.5 -1.5,0 -1.5,0 0,1.5 0,1.5 4.5,0 4.5,0 0,1.5 0,1.5 1.5,0 1.5,0 0,1.5 0,1.5 -3,0 -3,0 0,3 0,3 -1.5,0 -1.5,0 0,1.5 0,1.5 -1.5,0 -1.5,0 0,3 0,3 1.5,0 1.5,0 0,-1.5 z m -33,-6 0,-4.5 -1.5,0 -1.5,0 0,4.5 0,4.5 1.5,0 1.5,0 0,-4.5 z m 6,1.5 0,-3 -1.5,0 -1.5,0 0,3 0,3 1.5,0 1.5,0 0,-3 z m 6,0 0,-3 -1.5,0 -1.5,0 0,3 0,3 1.5,0 1.5,0 0,-3 z m 6,0 0,-3 -1.5,0 -1.5,0 0,3 0,3 1.5,0 1.5,0 0,-3 z m 6,-1.5 0,-4.5 -1.5,0 -1.5,0 0,4.5 0,4.5 1.5,0 1.5,0 0,-4.5 z m 0,-15 0,-4.5 -7.5,0 -7.5,0 0,4.5 0,4.5 7.5,0 7.5,0 0,-4.5 z m 36,0 0,-4.5 1.5,0 1.5,0 0,-1.5 0,-1.5 -1.5,0 -1.5,0 0,-3 0,-3 -1.5,0 -1.5,0 0,-16.5 0,-16.5 1.5,0 1.5,0 0,-1.5 0,-1.5 1.5,0 1.5,0 0,-1.5 0,-1.5 24,0 24,0 0,1.5 0,1.5 1.5,0 1.5,0 0,1.5 0,1.5 1.5,0 1.5,0 0,16.5 0,16.5 -1.5,0 -1.5,0 0,1.5 0,1.5 -1.5,0 -1.5,0 0,1.5 0,1.5 -15,0 -15,0 0,1.5 0,1.5 -1.5,0 -1.5,0 0,1.5 0,1.5 -1.5,0 -1.5,0 0,1.5 0,1.5 -1.5,0 -1.5,0 0,1.5 0,1.5 -6,0 -6,0 0,-4.5 z m 9,0 0,-1.5 1.5,0 1.5,0 0,-1.5 0,-1.5 1.5,0 1.5,0 0,-1.5 0,-1.5 1.5,0 1.5,0 0,-1.5 0,-1.5 15,0 15,0 0,-1.5 0,-1.5 1.5,0 1.5,0 0,-1.5 0,-1.5 1.5,0 1.5,0 0,-13.5 0,-13.5 -1.5,0 -1.5,0 0,-1.5 0,-1.5 -1.5,0 -1.5,0 0,-1.5 0,-1.5 -21,0 -21,0 0,1.5 0,1.5 -1.5,0 -1.5,0 0,1.5 0,1.5 -1.5,0 -1.5,0 0,13.5 0,13.5 1.5,0 1.5,0 0,3 0,3 1.5,0 1.5,0 0,4.5 0,4.5 -1.5,0 -1.5,0 0,1.5 0,1.5 3,0 3,0 0,-1.5 z m -3,-21 0,-1.5 21,0 21,0 0,1.5 0,1.5 -21,0 -21,0 0,-1.5 z m 0,-6 0,-1.5 21,0 21,0 0,1.5 0,1.5 -21,0 -21,0 0,-1.5 z m 0,-6 0,-1.5 21,0 21,0 0,1.5 0,1.5 -21,0 -21,0 0,-1.5 z m 0,-6 0,-1.5 21,0 21,0 0,1.5 0,1.5 -21,0 -21,0 0,-1.5 z"
         id="path3119"
         style="fill:#dfb19d" />
      <path
         d="m 374.14725,570.85962 0,-1.5 -3,0 -3,0 0,-1.5 0,-1.5 -4.5,0 -4.5,0 0,-1.5 0,-1.5 -3,0 -3,0 0,-1.5 0,-1.5 -1.5,0 -1.5,0 0,-1.5 0,-1.5 -1.5,0 -1.5,0 0,-1.5 0,-1.5 -1.5,0 -1.5,0 0,-7.5 0,-7.5 1.5,0 1.5,0 0,-1.5 0,-1.5 -1.5,0 -1.5,0 0,-4.5 0,-4.5 1.5,0 1.5,0 0,-1.5 0,-1.5 1.5,0 1.5,0 0,-4.5 0,-4.5 -1.5,0 -1.5,0 0,-1.5 0,-1.5 -1.5,0 -1.5,0 0,-4.5 0,-4.5 1.5,0 1.5,0 0,-1.5 0,-1.5 1.5,0 1.5,0 0,-1.5 0,-1.5 1.5,0 1.5,0 0,-1.5 0,-1.5 1.5,0 1.5,0 0,-1.5 0,-1.5 7.5,0 7.5,0 0,1.5 0,1.5 3,0 3,0 0,-1.5 0,-1.5 10.5,0 10.5,0 0,1.5 0,1.5 3,0 3,0 0,1.5 0,1.5 3,0 3,0 0,1.5 0,1.5 1.5,0 1.5,0 0,1.5 0,1.5 1.5,0 1.5,0 0,1.5 0,1.5 1.5,0 1.5,0 0,4.5 0,4.5 -1.5,0 -1.5,0 0,4.5 0,4.5 1.5,0 1.5,0 0,1.5 0,1.5 1.5,0 1.5,0 0,4.5 0,4.5 -1.5,0 -1.5,0 0,1.5 0,1.5 1.5,0 1.5,0 0,7.5 0,7.5 -1.5,0 -1.5,0 0,1.5 0,1.5 -1.5,0 -1.5,0 0,1.5 0,1.5 -1.5,0 -1.5,0 0,1.5 0,1.5 -3,0 -3,0 0,1.5 0,1.5 -4.5,0 -4.5,0 0,1.5 0,1.5 -3,0 -3,0 0,1.5 0,1.5 -3,0 -3,0 0,-1.5 0,-1.5 -3,0 -3,0 0,1.5 0,1.5 -3,0 -3,0 0,-1.5 z m 6,-3 0,-1.5 3,0 3,0 0,1.5 0,1.5 3,0 3,0 0,-1.5 0,-1.5 3,0 3,0 0,-1.5 0,-1.5 4.5,0 4.5,0 0,-1.5 0,-1.5 3,0 3,0 0,-1.5 0,-1.5 1.5,0 1.5,0 0,-1.5 0,-1.5 1.5,0 1.5,0 0,-7.5 0,-7.5 -1.5,0 -1.5,0 0,-1.5 0,-1.5 1.5,0 1.5,0 0,-4.5 0,-4.5 -1.5,0 -1.5,0 0,3 0,3 -1.5,0 -1.5,0 0,1.5 0,1.5 -1.5,0 -1.5,0 0,-1.5 0,-1.5 -1.5,0 -1.5,0 0,-1.5 0,-1.5 -1.5,0 -1.5,0 0,1.5 0,1.5 -3,0 -3,0 0,1.5 0,1.5 1.5,0 1.5,0 0,7.5 0,7.5 1.5,0 1.5,0 0,-4.5 0,-4.5 3,0 3,0 0,1.5 0,1.5 -1.5,0 -1.5,0 0,3 0,3 -1.5,0 -1.5,0 0,1.5 0,1.5 -1.5,0 -1.5,0 0,3 0,3 -5.5,0 -5.5,0 0,1.5 0,1.5 -6.5,0 -6.5,0 0,-1.5 0,-1.5 -6,0 -6,0 0,-3 0,-3 -1.5,0 -1.5,0 0,-1.5 0,-1.5 -1.5,0 -1.5,0 0,-3 0,-3 -1.5,0 -1.5,0 0,-1.5 0,-1.5 3,0 3,0 0,4.5 0,4.5 1.5,0 1.5,0 0,-7.5 0,-7.5 1.5,0 1.5,0 0,-1.5 0,-1.5 -3,0 -3,0 0,-1.5 0,-1.5 -1.5,0 -1.5,0 0,1.5 0,1.5 -1.5,0 -1.5,0 0,1.5 0,1.5 -1.5,0 -1.5,0 0,-1.5 0,-1.5 -1.5,0 -1.5,0 0,-3 0,-3 -1.5,0 -1.5,0 0,4.5 0,4.5 1.5,0 1.5,0 0,1.5 0,1.5 -1.5,0 -1.5,0 0,7.5 0,7.5 1.5,0 1.5,0 0,1.5 0,1.5 1.5,0 1.5,0 0,1.5 0,1.5 3,0 3,0 0,1.5 0,1.5 4.5,0 4.5,0 0,1.5 0,1.5 3,0 3,0 0,1.5 0,1.5 3,0 3,0 0,-1.5 z m -9,-15 0,-4.5 -1.5,0 -1.5,0 0,4.5 0,4.5 1.5,0 1.5,0 0,-4.5 z m 6,1.5 0,-3 -1.5,0 -1.5,0 0,3 0,3 1.5,0 1.5,0 0,-3 z m 6,0 0,-3 -1.5,0 -1.5,0 0,3 0,3 1.5,0 1.5,0 0,-3 z m 6,0 0,-3 -1.5,0 -1.5,0 0,3 0,3 1.5,0 1.5,0 0,-3 z m 6,-1.5 0,-4.5 -1.5,0 -1.5,0 0,4.5 0,4.5 1.5,0 1.5,0 0,-4.5 z m 0,-9 0,-1.5 1.5,0 1.5,0 0,-3 0,-3 -1.5,0 -1.5,0 0,-1.5 0,-1.5 -12,0 -12,0 0,1.5 0,1.5 -1.5,0 -1.5,0 0,3 0,3 1.5,0 1.5,0 0,1.5 0,1.5 12,0 12,0 0,-1.5 z m -39,-15 0,-4.5 -1.5,0 -1.5,0 0,4.5 0,4.5 1.5,0 1.5,0 0,-4.5 z m 57,0 0,-4.5 -1.5,0 -1.5,0 0,4.5 0,4.5 1.5,0 1.5,0 0,-4.5 z m 18,9 0,-4.5 1.5,0 1.5,0 0,-1.5 0,-1.5 -1.5,0 -1.5,0 0,-3 0,-3 -1.5,0 -1.5,0 0,-16.5 0,-16.5 1.5,0 1.5,0 0,-1.5 0,-1.5 1.5,0 1.5,0 0,-1.5 0,-1.5 24,0 24,0 0,1.5 0,1.5 1.5,0 1.5,0 0,1.5 0,1.5 1.5,0 1.5,0 0,16.5 0,16.5 -1.5,0 -1.5,0 0,1.5 0,1.5 -1.5,0 -1.5,0 0,1.5 0,1.5 -15,0 -15,0 0,1.5 0,1.5 -1.5,0 -1.5,0 0,1.5 0,1.5 -1.5,0 -1.5,0 0,1.5 0,1.5 -1.5,0 -1.5,0 0,1.5 0,1.5 -6,0 -6,0 0,-4.5 z m 9,0 0,-1.5 1.5,0 1.5,0 0,-1.5 0,-1.5 1.5,0 1.5,0 0,-1.5 0,-1.5 1.5,0 1.5,0 0,-1.5 0,-1.5 15,0 15,0 0,-1.5 0,-1.5 1.5,0 1.5,0 0,-1.5 0,-1.5 1.5,0 1.5,0 0,-13.5 0,-13.5 -1.5,0 -1.5,0 0,-1.5 0,-1.5 -1.5,0 -1.5,0 0,-1.5 0,-1.5 -21,0 -21,0 0,1.5 0,1.5 -1.5,0 -1.5,0 0,1.5 0,1.5 -1.5,0 -1.5,0 0,13.5 0,13.5 1.5,0 1.5,0 0,3 0,3 1.5,0 1.5,0 0,4.5 0,4.5 -1.5,0 -1.5,0 0,1.5 0,1.5 3,0 3,0 0,-1.5 z m -3,-21 0,-1.5 21,0 21,0 0,1.5 0,1.5 -21,0 -21,0 0,-1.5 z m 0,-6 0,-1.5 21,0 21,0 0,1.5 0,1.5 -21,0 -21,0 0,-1.5 z m 0,-6 0,-1.5 21,0 21,0 0,1.5 0,1.5 -21,0 -21,0 0,-1.5 z m 0,-6 0,-1.5 21,0 21,0 0,1.5 0,1.5 -21,0 -21,0 0,-1.5 z"
         id="path3117"
         style="fill:#bdb0a1" />
      <path
         d="m 374.14725,570.85962 0,-1.5 -3,0 -3,0 0,-1.5 0,-1.5 -4.5,0 -4.5,0 0,-1.5 0,-1.5 -3,0 -3,0 0,-1.5 0,-1.5 -1.5,0 -1.5,0 0,-1.5 0,-1.5 -1.5,0 -1.5,0 0,-1.5 0,-1.5 -1.5,0 -1.5,0 0,-7.5 0,-7.5 1.5,0 1.5,0 0,-1.5 0,-1.5 -1.5,0 -1.5,0 0,-4.5 0,-4.5 1.5,0 1.5,0 0,-1.5 0,-1.5 1.5,0 1.5,0 0,-4.5 0,-4.5 -1.5,0 -1.5,0 0,-1.5 0,-1.5 -1.5,0 -1.5,0 0,-4.5 0,-4.5 1.5,0 1.5,0 0,-1.5 0,-1.5 1.5,0 1.5,0 0,-1.5 0,-1.5 1.5,0 1.5,0 0,-1.5 0,-1.5 1.5,0 1.5,0 0,-1.5 0,-1.5 7.5,0 7.5,0 0,1.5 0,1.5 3,0 3,0 0,-1.5 0,-1.5 10.5,0 10.5,0 0,1.5 0,1.5 3,0 3,0 0,1.5 0,1.5 3,0 3,0 0,1.5 0,1.5 1.5,0 1.5,0 0,1.5 0,1.5 1.5,0 1.5,0 0,1.5 0,1.5 1.5,0 1.5,0 0,4.5 0,4.5 -1.5,0 -1.5,0 0,4.5 0,4.5 1.5,0 1.5,0 0,1.5 0,1.5 1.5,0 1.5,0 0,4.5 0,4.5 -1.5,0 -1.5,0 0,1.5 0,1.5 1.5,0 1.5,0 0,7.5 0,7.5 -1.5,0 -1.5,0 0,1.5 0,1.5 -1.5,0 -1.5,0 0,1.5 0,1.5 -1.5,0 -1.5,0 0,1.5 0,1.5 -3,0 -3,0 0,1.5 0,1.5 -4.5,0 -4.5,0 0,1.5 0,1.5 -3,0 -3,0 0,1.5 0,1.5 -3,0 -3,0 0,-1.5 0,-1.5 -3,0 -3,0 0,1.5 0,1.5 -3,0 -3,0 0,-1.5 z m 6,-3 0,-1.5 3,0 3,0 0,1.5 0,1.5 3,0 3,0 0,-1.5 0,-1.5 3,0 3,0 0,-1.5 0,-1.5 4.5,0 4.5,0 0,-1.5 0,-1.5 3,0 3,0 0,-1.5 0,-1.5 1.5,0 1.5,0 0,-1.5 0,-1.5 1.5,0 1.5,0 0,-7.5 0,-7.5 -1.5,0 -1.5,0 0,-1.5 0,-1.5 1.5,0 1.5,0 0,-4.5 0,-4.5 -1.5,0 -1.5,0 0,3 0,3 -1.5,0 -1.5,0 0,1.5 0,1.5 -1.5,0 -1.5,0 0,-1.5 0,-1.5 -1.5,0 -1.5,0 0,-1.5 0,-1.5 -1.5,0 -1.5,0 0,1.5 0,1.5 -3,0 -3,0 0,1.5 0,1.5 1.5,0 1.5,0 0,7.5 0,7.5 1.5,0 1.5,0 0,-4.5 0,-4.5 3,0 3,0 0,1.5 0,1.5 -1.5,0 -1.5,0 0,3 0,3 -1.5,0 -1.5,0 0,1.5 0,1.5 -1.5,0 -1.5,0 0,3 0,3 -5.5,0 -5.5,0 0,1.5 0,1.5 -6.5,0 -6.5,0 0,-1.5 0,-1.5 -6,0 -6,0 0,-3 0,-3 -1.5,0 -1.5,0 0,-1.5 0,-1.5 -1.5,0 -1.5,0 0,-3 0,-3 -1.5,0 -1.5,0 0,-1.5 0,-1.5 3,0 3,0 0,4.5 0,4.5 1.5,0 1.5,0 0,-7.5 0,-7.5 1.5,0 1.5,0 0,-1.5 0,-1.5 -3,0 -3,0 0,-1.5 0,-1.5 -1.5,0 -1.5,0 0,1.5 0,1.5 -1.5,0 -1.5,0 0,1.5 0,1.5 -1.5,0 -1.5,0 0,-1.5 0,-1.5 -1.5,0 -1.5,0 0,-3 0,-3 -1.5,0 -1.5,0 0,4.5 0,4.5 1.5,0 1.5,0 0,1.5 0,1.5 -1.5,0 -1.5,0 0,7.5 0,7.5 1.5,0 1.5,0 0,1.5 0,1.5 1.5,0 1.5,0 0,1.5 0,1.5 3,0 3,0 0,1.5 0,1.5 4.5,0 4.5,0 0,1.5 0,1.5 3,0 3,0 0,1.5 0,1.5 3,0 3,0 0,-1.5 z m -9,-15 0,-4.5 -1.5,0 -1.5,0 0,4.5 0,4.5 1.5,0 1.5,0 0,-4.5 z m 6,1.5 0,-3 -1.5,0 -1.5,0 0,3 0,3 1.5,0 1.5,0 0,-3 z m 6,0 0,-3 -1.5,0 -1.5,0 0,3 0,3 1.5,0 1.5,0 0,-3 z m 6,0 0,-3 -1.5,0 -1.5,0 0,3 0,3 1.5,0 1.5,0 0,-3 z m 6,-1.5 0,-4.5 -1.5,0 -1.5,0 0,4.5 0,4.5 1.5,0 1.5,0 0,-4.5 z m 0,-9 0,-1.5 1.5,0 1.5,0 0,-3 0,-3 -1.5,0 -1.5,0 0,-1.5 0,-1.5 -12,0 -12,0 0,1.5 0,1.5 -1.5,0 -1.5,0 0,3 0,3 1.5,0 1.5,0 0,1.5 0,1.5 12,0 12,0 0,-1.5 z m -39,-15 0,-4.5 -1.5,0 -1.5,0 0,4.5 0,4.5 1.5,0 1.5,0 0,-4.5 z m 57,0 0,-4.5 -1.5,0 -1.5,0 0,4.5 0,4.5 1.5,0 1.5,0 0,-4.5 z"
         id="path3115"
         style="fill:#f3cf24" />
      <path
         d="m 374.14725,570.85962 0,-1.5 -3,0 -3,0 0,-1.5 0,-1.5 -4.5,0 -4.5,0 0,-1.5 0,-1.5 -3,0 -3,0 0,-1.5 0,-1.5 -1.5,0 -1.5,0 0,-1.5 0,-1.5 -1.5,0 -1.5,0 0,-1.5 0,-1.5 -1.5,0 -1.5,0 0,-7.5 0,-7.5 1.5,0 1.5,0 0,-1.5 0,-1.5 -1.5,0 -1.5,0 0,-4.5 0,-4.5 1.5,0 1.5,0 0,-1.5 0,-1.5 1.5,0 1.5,0 0,-4.5 0,-4.5 -1.5,0 -1.5,0 0,-1.5 0,-1.5 -1.5,0 -1.5,0 0,-4.5 0,-4.5 1.5,0 1.5,0 0,-1.5 0,-1.5 1.5,0 1.5,0 0,-1.5 0,-1.5 1.5,0 1.5,0 0,-1.5 0,-1.5 1.5,0 1.5,0 0,-1.5 0,-1.5 7.5,0 7.5,0 0,1.5 0,1.5 3,0 3,0 0,-1.5 0,-1.5 10.5,0 10.5,0 0,1.5 0,1.5 3,0 3,0 0,1.5 0,1.5 3,0 3,0 0,1.5 0,1.5 1.5,0 1.5,0 0,1.5 0,1.5 1.5,0 1.5,0 0,1.5 0,1.5 1.5,0 1.5,0 0,4.5 0,4.5 -1.5,0 -1.5,0 0,4.5 0,4.5 1.5,0 1.5,0 0,1.5 0,1.5 1.5,0 1.5,0 0,4.5 0,4.5 -1.5,0 -1.5,0 0,1.5 0,1.5 1.5,0 1.5,0 0,7.5 0,7.5 -1.5,0 -1.5,0 0,1.5 0,1.5 -1.5,0 -1.5,0 0,1.5 0,1.5 -1.5,0 -1.5,0 0,1.5 0,1.5 -3,0 -3,0 0,1.5 0,1.5 -4.5,0 -4.5,0 0,1.5 0,1.5 -3,0 -3,0 0,1.5 0,1.5 -3,0 -3,0 0,-1.5 0,-1.5 -3,0 -3,0 0,1.5 0,1.5 -3,0 -3,0 0,-1.5 z m 6,-3 0,-1.5 3,0 3,0 0,1.5 0,1.5 3,0 3,0 0,-1.5 0,-1.5 3,0 3,0 0,-1.5 0,-1.5 4.5,0 4.5,0 0,-1.5 0,-1.5 3,0 3,0 0,-1.5 0,-1.5 1.5,0 1.5,0 0,-1.5 0,-1.5 1.5,0 1.5,0 0,-7.5 0,-7.5 -1.5,0 -1.5,0 0,-1.5 0,-1.5 1.5,0 1.5,0 0,-4.5 0,-4.5 -1.5,0 -1.5,0 0,3 0,3 -1.5,0 -1.5,0 0,1.5 0,1.5 -1.5,0 -1.5,0 0,-1.5 0,-1.5 -1.5,0 -1.5,0 0,-1.5 0,-1.5 -1.5,0 -1.5,0 0,1.5 0,1.5 -3,0 -3,0 0,1.5 0,1.5 1.5,0 1.5,0 0,7.5 0,7.5 1.5,0 1.5,0 0,-4.5 0,-4.5 3,0 3,0 0,1.5 0,1.5 -1.5,0 -1.5,0 0,3 0,3 -1.5,0 -1.5,0 0,1.5 0,1.5 -1.5,0 -1.5,0 0,3 0,3 -5.5,0 -5.5,0 0,1.5 0,1.5 -6.5,0 -6.5,0 0,-1.5 0,-1.5 -6,0 -6,0 0,-3 0,-3 -1.5,0 -1.5,0 0,-1.5 0,-1.5 -1.5,0 -1.5,0 0,-3 0,-3 -1.5,0 -1.5,0 0,-1.5 0,-1.5 3,0 3,0 0,4.5 0,4.5 1.5,0 1.5,0 0,-7.5 0,-7.5 1.5,0 1.5,0 0,-1.5 0,-1.5 -3,0 -3,0 0,-1.5 0,-1.5 -1.5,0 -1.5,0 0,1.5 0,1.5 -1.5,0 -1.5,0 0,1.5 0,1.5 -1.5,0 -1.5,0 0,-1.5 0,-1.5 -1.5,0 -1.5,0 0,-3 0,-3 -1.5,0 -1.5,0 0,4.5 0,4.5 1.5,0 1.5,0 0,1.5 0,1.5 -1.5,0 -1.5,0 0,7.5 0,7.5 1.5,0 1.5,0 0,1.5 0,1.5 1.5,0 1.5,0 0,1.5 0,1.5 3,0 3,0 0,1.5 0,1.5 4.5,0 4.5,0 0,1.5 0,1.5 3,0 3,0 0,1.5 0,1.5 3,0 3,0 0,-1.5 z m -9,-15 0,-4.5 -1.5,0 -1.5,0 0,4.5 0,4.5 1.5,0 1.5,0 0,-4.5 z m 6,1.5 0,-3 -1.5,0 -1.5,0 0,3 0,3 1.5,0 1.5,0 0,-3 z m 6,0 0,-3 -1.5,0 -1.5,0 0,3 0,3 1.5,0 1.5,0 0,-3 z m 6,0 0,-3 -1.5,0 -1.5,0 0,3 0,3 1.5,0 1.5,0 0,-3 z m 6,-1.5 0,-4.5 -1.5,0 -1.5,0 0,4.5 0,4.5 1.5,0 1.5,0 0,-4.5 z m 0,-9 0,-1.5 1.5,0 1.5,0 0,-3 0,-3 -1.5,0 -1.5,0 0,-1.5 0,-1.5 -12,0 -12,0 0,1.5 0,1.5 -1.5,0 -1.5,0 0,3 0,3 1.5,0 1.5,0 0,1.5 0,1.5 12,0 12,0 0,-1.5 z m -39,-15 0,-4.5 -1.5,0 -1.5,0 0,4.5 0,4.5 1.5,0 1.5,0 0,-4.5 z m 57,0 0,-4.5 -1.5,0 -1.5,0 0,4.5 0,4.5 1.5,0 1.5,0 0,-4.5 z m -21,-30 0,-1.5 -1.5,0 -1.5,0 0,1.5 0,1.5 1.5,0 1.5,0 0,-1.5 z"
         id="path3113"
         style="fill:#a0a0a0" />
      <path
         d="m 374.14725,570.85962 0,-1.5 -3,0 -3,0 0,-1.5 0,-1.5 -4.5,0 -4.5,0 0,-1.5 0,-1.5 -3,0 -3,0 0,-1.5 0,-1.5 -1.5,0 -1.5,0 0,-1.5 0,-1.5 -1.5,0 -1.5,0 0,-1.5 0,-1.5 -1.5,0 -1.5,0 0,-7.5 0,-7.5 1.5,0 1.5,0 0,-1.5 0,-1.5 -1.5,0 -1.5,0 0,-4.5 0,-4.5 1.5,0 1.5,0 0,-1.5 0,-1.5 1.5,0 1.5,0 0,-4.5 0,-4.5 -1.5,0 -1.5,0 0,-1.5 0,-1.5 -1.5,0 -1.5,0 0,-4.5 0,-4.5 1.5,0 1.5,0 0,-1.5 0,-1.5 1.5,0 1.5,0 0,-1.5 0,-1.5 1.5,0 1.5,0 0,-1.5 0,-1.5 1.5,0 1.5,0 0,-1.5 0,-1.5 7.5,0 7.5,0 0,1.5 0,1.5 3,0 3,0 0,-1.5 0,-1.5 10.5,0 10.5,0 0,1.5 0,1.5 3,0 3,0 0,1.5 0,1.5 3,0 3,0 0,1.5 0,1.5 1.5,0 1.5,0 0,1.5 0,1.5 1.5,0 1.5,0 0,1.5 0,1.5 1.5,0 1.5,0 0,4.5 0,4.5 -1.5,0 -1.5,0 0,4.5 0,4.5 1.5,0 1.5,0 0,1.5 0,1.5 1.5,0 1.5,0 0,4.5 0,4.5 -1.5,0 -1.5,0 0,1.5 0,1.5 1.5,0 1.5,0 0,7.5 0,7.5 -1.5,0 -1.5,0 0,1.5 0,1.5 -1.5,0 -1.5,0 0,1.5 0,1.5 -1.5,0 -1.5,0 0,1.5 0,1.5 -3,0 -3,0 0,1.5 0,1.5 -4.5,0 -4.5,0 0,1.5 0,1.5 -3,0 -3,0 0,1.5 0,1.5 -3,0 -3,0 0,-1.5 0,-1.5 -3,0 -3,0 0,1.5 0,1.5 -3,0 -3,0 0,-1.5 z m 6,-3 0,-1.5 3,0 3,0 0,1.5 0,1.5 3,0 3,0 0,-1.5 0,-1.5 3,0 3,0 0,-1.5 0,-1.5 4.5,0 4.5,0 0,-1.5 0,-1.5 3,0 3,0 0,-1.5 0,-1.5 1.5,0 1.5,0 0,-1.5 0,-1.5 1.5,0 1.5,0 0,-7.5 0,-7.5 -1.5,0 -1.5,0 0,-1.5 0,-1.5 1.5,0 1.5,0 0,-4.5 0,-4.5 -1.5,0 -1.5,0 0,3 0,3 -1.5,0 -1.5,0 0,1.5 0,1.5 -1.5,0 -1.5,0 0,-1.5 0,-1.5 -1.5,0 -1.5,0 0,-1.5 0,-1.5 -1.5,0 -1.5,0 0,1.5 0,1.5 -3,0 -3,0 0,1.5 0,1.5 1.5,0 1.5,0 0,7.5 0,7.5 1.5,0 1.5,0 0,-4.5 0,-4.5 3,0 3,0 0,1.5 0,1.5 -1.5,0 -1.5,0 0,3 0,3 -1.5,0 -1.5,0 0,1.5 0,1.5 -1.5,0 -1.5,0 0,3 0,3 -3,0 -3,0 0,-1.5 0,-1.5 1.5,0 1.5,0 0,-6 0,-6 -1.5,0 -1.5,0 0,1.5 0,1.5 -12,0 -12,0 0,-1.5 0,-1.5 -1.5,0 -1.5,0 0,7.5 0,7.5 -1.5,0 -1.5,0 0,-3 0,-3 -1.5,0 -1.5,0 0,-1.5 0,-1.5 -1.5,0 -1.5,0 0,-3 0,-3 -1.5,0 -1.5,0 0,-1.5 0,-1.5 3,0 3,0 0,4.5 0,4.5 1.5,0 1.5,0 0,-7.5 0,-7.5 1.5,0 1.5,0 0,-1.5 0,-1.5 -3,0 -3,0 0,-1.5 0,-1.5 -1.5,0 -1.5,0 0,1.5 0,1.5 -1.5,0 -1.5,0 0,1.5 0,1.5 -1.5,0 -1.5,0 0,-1.5 0,-1.5 -1.5,0 -1.5,0 0,-3 0,-3 -1.5,0 -1.5,0 0,4.5 0,4.5 1.5,0 1.5,0 0,1.5 0,1.5 -1.5,0 -1.5,0 0,7.5 0,7.5 1.5,0 1.5,0 0,1.5 0,1.5 1.5,0 1.5,0 0,1.5 0,1.5 3,0 3,0 0,1.5 0,1.5 4.5,0 4.5,0 0,1.5 0,1.5 3,0 3,0 0,1.5 0,1.5 3,0 3,0 0,-1.5 z m -3,-7.5 0,-3 1.5,0 1.5,0 0,1.5 0,1.5 1.5,0 1.5,0 0,-1.5 0,-1.5 1.5,0 1.5,0 0,1.5 0,1.5 1.5,0 1.5,0 0,-1.5 0,-1.5 1.5,0 1.5,0 0,1.5 0,1.5 -1,0 -1,0 0,1.5 0,1.5 -6.5,0 -6.5,0 0,-3 z m -6,-1.5 0,-1.5 1.5,0 1.5,0 0,1.5 0,1.5 -1.5,0 -1.5,0 0,-1.5 z m 24,-15 0,-1.5 1.5,0 1.5,0 0,-3 0,-3 -1.5,0 -1.5,0 0,-1.5 0,-1.5 -12,0 -12,0 0,1.5 0,1.5 -1.5,0 -1.5,0 0,3 0,3 1.5,0 1.5,0 0,1.5 0,1.5 12,0 12,0 0,-1.5 z m -39,-15 0,-4.5 -1.5,0 -1.5,0 0,4.5 0,4.5 1.5,0 1.5,0 0,-4.5 z m 57,0 0,-4.5 -1.5,0 -1.5,0 0,4.5 0,4.5 1.5,0 1.5,0 0,-4.5 z m -21,-30 0,-1.5 -1.5,0 -1.5,0 0,1.5 0,1.5 1.5,0 1.5,0 0,-1.5 z"
         id="path3111"
         style="fill:#f3b91c" />
      <path
         d="m 374.14725,570.85962 0,-1.5 -3,0 -3,0 0,-1.5 0,-1.5 -4.5,0 -4.5,0 0,-1.5 0,-1.5 -3,0 -3,0 0,-1.5 0,-1.5 -1.5,0 -1.5,0 0,-1.5 0,-1.5 -1.5,0 -1.5,0 0,-1.5 0,-1.5 -1.5,0 -1.5,0 0,-7.5 0,-7.5 1.5,0 1.5,0 0,-1.5 0,-1.5 -1.5,0 -1.5,0 0,-4.5 0,-4.5 1.5,0 1.5,0 0,-1.5 0,-1.5 1.5,0 1.5,0 0,-4.5 0,-4.5 -1.5,0 -1.5,0 0,-1.5 0,-1.5 -1.5,0 -1.5,0 0,-4.5 0,-4.5 1.5,0 1.5,0 0,-1.5 0,-1.5 1.5,0 1.5,0 0,-1.5 0,-1.5 1.5,0 1.5,0 0,-1.5 0,-1.5 1.5,0 1.5,0 0,-1.5 0,-1.5 7.5,0 7.5,0 0,1.5 0,1.5 3,0 3,0 0,-1.5 0,-1.5 10.5,0 10.5,0 0,1.5 0,1.5 3,0 3,0 0,1.5 0,1.5 3,0 3,0 0,1.5 0,1.5 1.5,0 1.5,0 0,1.5 0,1.5 1.5,0 1.5,0 0,1.5 0,1.5 1.5,0 1.5,0 0,4.5 0,4.5 -1.5,0 -1.5,0 0,4.5 0,4.5 1.5,0 1.5,0 0,1.5 0,1.5 1.5,0 1.5,0 0,4.5 0,4.5 -1.5,0 -1.5,0 0,1.5 0,1.5 1.5,0 1.5,0 0,7.5 0,7.5 -1.5,0 -1.5,0 0,1.5 0,1.5 -1.5,0 -1.5,0 0,1.5 0,1.5 -1.5,0 -1.5,0 0,1.5 0,1.5 -3,0 -3,0 0,1.5 0,1.5 -4.5,0 -4.5,0 0,1.5 0,1.5 -3,0 -3,0 0,1.5 0,1.5 -3,0 -3,0 0,-1.5 0,-1.5 -3,0 -3,0 0,1.5 0,1.5 -3,0 -3,0 0,-1.5 z m 6,-3 0,-1.5 3,0 3,0 0,1.5 0,1.5 3,0 3,0 0,-1.5 0,-1.5 3,0 3,0 0,-1.5 0,-1.5 4.5,0 4.5,0 0,-1.5 0,-1.5 3,0 3,0 0,-1.5 0,-1.5 1.5,0 1.5,0 0,-1.5 0,-1.5 1.5,0 1.5,0 0,-7.5 0,-7.5 -1.5,0 -1.5,0 0,-1.5 0,-1.5 1.5,0 1.5,0 0,-4.5 0,-4.5 -1.5,0 -1.5,0 0,3 0,3 -1.5,0 -1.5,0 0,1.5 0,1.5 -1.5,0 -1.5,0 0,-1.5 0,-1.5 -1.5,0 -1.5,0 0,-1.5 0,-1.5 -1.5,0 -1.5,0 0,1.5 0,1.5 -3,0 -3,0 0,1.5 0,1.5 1.5,0 1.5,0 0,7.5 0,7.5 1.5,0 1.5,0 0,-4.5 0,-4.5 3,0 3,0 0,1.5 0,1.5 -1.5,0 -1.5,0 0,3 0,3 -1.5,0 -1.5,0 0,1.5 0,1.5 -1.5,0 -1.5,0 0,3 0,3 -3,0 -3,0 0,-1.5 0,-1.5 1.5,0 1.5,0 0,-6 0,-6 -1.5,0 -1.5,0 0,1.5 0,1.5 -12,0 -12,0 0,-1.5 0,-1.5 -1.5,0 -1.5,0 0,7.5 0,7.5 -1.5,0 -1.5,0 0,-3 0,-3 -1.5,0 -1.5,0 0,-1.5 0,-1.5 -1.5,0 -1.5,0 0,-3 0,-3 -1.5,0 -1.5,0 0,-1.5 0,-1.5 3,0 3,0 0,4.5 0,4.5 1.5,0 1.5,0 0,-7.5 0,-7.5 1.5,0 1.5,0 0,-1.5 0,-1.5 -3,0 -3,0 0,-1.5 0,-1.5 -1.5,0 -1.5,0 0,1.5 0,1.5 -1.5,0 -1.5,0 0,1.5 0,1.5 -1.5,0 -1.5,0 0,-1.5 0,-1.5 -1.5,0 -1.5,0 0,-3 0,-3 -1.5,0 -1.5,0 0,4.5 0,4.5 1.5,0 1.5,0 0,1.5 0,1.5 -1.5,0 -1.5,0 0,7.5 0,7.5 1.5,0 1.5,0 0,1.5 0,1.5 1.5,0 1.5,0 0,1.5 0,1.5 3,0 3,0 0,1.5 0,1.5 4.5,0 4.5,0 0,1.5 0,1.5 3,0 3,0 0,1.5 0,1.5 3,0 3,0 0,-1.5 z m -3,-7.5 0,-3 1.5,0 1.5,0 0,1.5 0,1.5 1.5,0 1.5,0 0,-1.5 0,-1.5 1.5,0 1.5,0 0,1.5 0,1.5 1.5,0 1.5,0 0,-1.5 0,-1.5 1.5,0 1.5,0 0,1.5 0,1.5 -1,0 -1,0 0,1.5 0,1.5 -6.5,0 -6.5,0 0,-3 z m -6,-1.5 0,-1.5 1.5,0 1.5,0 0,1.5 0,1.5 -1.5,0 -1.5,0 0,-1.5 z m 24,-15 0,-1.5 1.5,0 1.5,0 0,-3 0,-3 -1.5,0 -1.5,0 0,-1.5 0,-1.5 -12,0 -12,0 0,1.5 0,1.5 -1.5,0 -1.5,0 0,3 0,3 1.5,0 1.5,0 0,1.5 0,1.5 12,0 12,0 0,-1.5 z m -39,-15 0,-4.5 -1.5,0 -1.5,0 0,4.5 0,4.5 1.5,0 1.5,0 0,-4.5 z m 57,0 0,-4.5 -1.5,0 -1.5,0 0,4.5 0,4.5 1.5,0 1.5,0 0,-4.5 z m -21,-30 0,-1.5 -3,0 -3,0 0,1.5 0,1.5 3,0 3,0 0,-1.5 z"
         id="path3109"
         style="fill:#797979" />
      <path
         d="m 374.14725,570.85962 0,-1.5 -3,0 -3,0 0,-1.5 0,-1.5 -4.5,0 -4.5,0 0,-1.5 0,-1.5 -3,0 -3,0 0,-1.5 0,-1.5 -1.5,0 -1.5,0 0,-1.5 0,-1.5 -1.5,0 -1.5,0 0,-1.5 0,-1.5 -1.5,0 -1.5,0 0,-7.5 0,-7.5 1.5,0 1.5,0 0,-1.5 0,-1.5 -1.5,0 -1.5,0 0,-4.5 0,-4.5 1.5,0 1.5,0 0,-1.5 0,-1.5 1.5,0 1.5,0 0,1.5 0,1.5 -1.5,0 -1.5,0 0,4.5 0,4.5 1.5,0 1.5,0 0,1.5 0,1.5 -1.5,0 -1.5,0 0,7.5 0,7.5 1.5,0 1.5,0 0,1.5 0,1.5 1.5,0 1.5,0 0,1.5 0,1.5 3,0 3,0 0,1.5 0,1.5 4.5,0 4.5,0 0,1.5 0,1.5 3,0 3,0 0,1.5 0,1.5 3,0 3,0 0,-1.5 0,-1.5 3,0 3,0 0,1.5 0,1.5 3,0 3,0 0,-1.5 0,-1.5 3,0 3,0 0,-1.5 0,-1.5 4.5,0 4.5,0 0,-1.5 0,-1.5 3,0 3,0 0,-1.5 0,-1.5 1.5,0 1.5,0 0,-1.5 0,-1.5 1.5,0 1.5,0 0,-7.5 0,-7.5 -1.5,0 -1.5,0 0,-1.5 0,-1.5 1.5,0 1.5,0 0,-4.5 0,-4.5 -1.5,0 -1.5,0 0,-1.5 0,-1.5 1.5,0 1.5,0 0,1.5 0,1.5 1.5,0 1.5,0 0,4.5 0,4.5 -1.5,0 -1.5,0 0,1.5 0,1.5 1.5,0 1.5,0 0,7.5 0,7.5 -1.5,0 -1.5,0 0,1.5 0,1.5 -1.5,0 -1.5,0 0,1.5 0,1.5 -1.5,0 -1.5,0 0,1.5 0,1.5 -3,0 -3,0 0,1.5 0,1.5 -4.5,0 -4.5,0 0,1.5 0,1.5 -3,0 -3,0 0,1.5 0,1.5 -3,0 -3,0 0,-1.5 0,-1.5 -3,0 -3,0 0,1.5 0,1.5 -3,0 -3,0 0,-1.5 z m 3,-9 0,-1.5 6.5,0 6.5,0 0,1.5 0,1.5 -6.5,0 -6.5,0 0,-1.5 z m -15,-9 0,-1.5 -1.5,0 -1.5,0 0,-3 0,-3 -1.5,0 -1.5,0 0,-1.5 0,-1.5 3,0 3,0 0,4.5 0,4.5 1.5,0 1.5,0 0,1.5 0,1.5 -1.5,0 -1.5,0 0,-1.5 z m 39,0 0,-1.5 1.5,0 1.5,0 0,-4.5 0,-4.5 3,0 3,0 0,1.5 0,1.5 -1.5,0 -1.5,0 0,3 0,3 -1.5,0 -1.5,0 0,1.5 0,1.5 -1.5,0 -1.5,0 0,-1.5 z m -30,-6 0,-1.5 -1.5,0 -1.5,0 0,-1.5 0,-1.5 -1.5,0 -1.5,0 0,-3 0,-3 1.5,0 1.5,0 0,-1.5 0,-1.5 -3,0 -3,0 0,-1.5 0,-1.5 -1.5,0 -1.5,0 0,-1.5 0,-1.5 -1.5,0 -1.5,0 0,-1.5 0,-1.5 -1.5,0 -1.5,0 0,-1.5 0,-1.5 -1.5,0 -1.5,0 0,-3 0,-3 -1.5,0 -1.5,0 0,-1.5 0,-1.5 -1.5,0 -1.5,0 0,-4.5 0,-4.5 1.5,0 1.5,0 0,-1.5 0,-1.5 1.5,0 1.5,0 0,-1.5 0,-1.5 1.5,0 1.5,0 0,-1.5 0,-1.5 1.5,0 1.5,0 0,-1.5 0,-1.5 7.5,0 7.5,0 0,1.5 0,1.5 3,0 3,0 0,-1.5 0,-1.5 10.5,0 10.5,0 0,1.5 0,1.5 3,0 3,0 0,1.5 0,1.5 3,0 3,0 0,1.5 0,1.5 1.5,0 1.5,0 0,1.5 0,1.5 1.5,0 1.5,0 0,1.5 0,1.5 1.5,0 1.5,0 0,4.5 0,4.5 -1.5,0 -1.5,0 0,3 0,3 -1.5,0 -1.5,0 0,1.5 0,1.5 -1.5,0 -1.5,0 0,1.5 0,1.5 -1.5,0 -1.5,0 0,1.5 0,1.5 -1.5,0 -1.5,0 0,1.5 0,1.5 -3,0 -3,0 0,1.5 0,1.5 1.5,0 1.5,0 0,3 0,3 -1.5,0 -1.5,0 0,1.5 0,1.5 -1.5,0 -1.5,0 0,1.5 0,1.5 -12,0 -12,0 0,-1.5 z m 24,-3 0,-1.5 1.5,0 1.5,0 0,-3 0,-3 -1.5,0 -1.5,0 0,-1.5 0,-1.5 -12,0 -12,0 0,1.5 0,1.5 -1.5,0 -1.5,0 0,3 0,3 1.5,0 1.5,0 0,1.5 0,1.5 12,0 12,0 0,-1.5 z m -3,-45 0,-1.5 -3,0 -3,0 0,1.5 0,1.5 3,0 3,0 0,-1.5 z"
         id="path3107"
         style="fill:#2979c9" />
      <path
         d="m 374.14725,570.85962 0,-1.5 -3,0 -3,0 0,-1.5 0,-1.5 -4.5,0 -4.5,0 0,-1.5 0,-1.5 -3,0 -3,0 0,-1.5 0,-1.5 -1.5,0 -1.5,0 0,-1.5 0,-1.5 -1.5,0 -1.5,0 0,-1.5 0,-1.5 -1.5,0 -1.5,0 0,-7.5 0,-7.5 1.5,0 1.5,0 0,-1.5 0,-1.5 -1.5,0 -1.5,0 0,-4.5 0,-4.5 1.5,0 1.5,0 0,-1.5 0,-1.5 1.5,0 1.5,0 0,1.5 0,1.5 -1.5,0 -1.5,0 0,4.5 0,4.5 1.5,0 1.5,0 0,1.5 0,1.5 -1.5,0 -1.5,0 0,7.5 0,7.5 1.5,0 1.5,0 0,1.5 0,1.5 1.5,0 1.5,0 0,1.5 0,1.5 3,0 3,0 0,1.5 0,1.5 4.5,0 4.5,0 0,1.5 0,1.5 3,0 3,0 0,1.5 0,1.5 3,0 3,0 0,-1.5 0,-1.5 3,0 3,0 0,1.5 0,1.5 3,0 3,0 0,-1.5 0,-1.5 3,0 3,0 0,-1.5 0,-1.5 4.5,0 4.5,0 0,-1.5 0,-1.5 3,0 3,0 0,-1.5 0,-1.5 1.5,0 1.5,0 0,-1.5 0,-1.5 1.5,0 1.5,0 0,-7.5 0,-7.5 -1.5,0 -1.5,0 0,-1.5 0,-1.5 1.5,0 1.5,0 0,-4.5 0,-4.5 -1.5,0 -1.5,0 0,-1.5 0,-1.5 1.5,0 1.5,0 0,1.5 0,1.5 1.5,0 1.5,0 0,4.5 0,4.5 -1.5,0 -1.5,0 0,1.5 0,1.5 1.5,0 1.5,0 0,7.5 0,7.5 -1.5,0 -1.5,0 0,1.5 0,1.5 -1.5,0 -1.5,0 0,1.5 0,1.5 -1.5,0 -1.5,0 0,1.5 0,1.5 -3,0 -3,0 0,1.5 0,1.5 -4.5,0 -4.5,0 0,1.5 0,1.5 -3,0 -3,0 0,1.5 0,1.5 -3,0 -3,0 0,-1.5 0,-1.5 -3,0 -3,0 0,1.5 0,1.5 -3,0 -3,0 0,-1.5 z m 3,-9 0,-1.5 6.5,0 6.5,0 0,1.5 0,1.5 -6.5,0 -6.5,0 0,-1.5 z m -15,-9 0,-1.5 -1.5,0 -1.5,0 0,-3 0,-3 -1.5,0 -1.5,0 0,-1.5 0,-1.5 3,0 3,0 0,4.5 0,4.5 1.5,0 1.5,0 0,1.5 0,1.5 -1.5,0 -1.5,0 0,-1.5 z m 39,0 0,-1.5 1.5,0 1.5,0 0,-4.5 0,-4.5 3,0 3,0 0,1.5 0,1.5 -1.5,0 -1.5,0 0,3 0,3 -1.5,0 -1.5,0 0,1.5 0,1.5 -1.5,0 -1.5,0 0,-1.5 z m -30,-6 0,-1.5 -1.5,0 -1.5,0 0,-1.5 0,-1.5 -1.5,0 -1.5,0 0,-3 0,-3 1.5,0 1.5,0 0,-1.5 0,-1.5 -3,0 -3,0 0,-1.5 0,-1.5 -1.5,0 -1.5,0 0,-1.5 0,-1.5 -1.5,0 -1.5,0 0,-1.5 0,-1.5 -1.5,0 -1.5,0 0,-1.5 0,-1.5 -1.5,0 -1.5,0 0,-3 0,-3 -1.5,0 -1.5,0 0,-1.5 0,-1.5 -1.5,0 -1.5,0 0,-4.5 0,-4.5 1.5,0 1.5,0 0,-1.5 0,-1.5 1.5,0 1.5,0 0,-1.5 0,-1.5 1.5,0 1.5,0 0,-1.5 0,-1.5 1.5,0 1.5,0 0,-1.5 0,-1.5 7.5,0 7.5,0 0,1.5 0,1.5 3,0 3,0 0,-1.5 0,-1.5 10.5,0 10.5,0 0,1.5 0,1.5 3,0 3,0 0,1.5 0,1.5 3,0 3,0 0,1.5 0,1.5 1.5,0 1.5,0 0,1.5 0,1.5 1.5,0 1.5,0 0,1.5 0,1.5 1.5,0 1.5,0 0,4.5 0,4.5 -1.5,0 -1.5,0 0,3 0,3 -1.5,0 -1.5,0 0,1.5 0,1.5 -1.5,0 -1.5,0 0,1.5 0,1.5 -1.5,0 -1.5,0 0,1.5 0,1.5 -1.5,0 -1.5,0 0,1.5 0,1.5 -3,0 -3,0 0,1.5 0,1.5 1.5,0 1.5,0 0,3 0,3 -1.5,0 -1.5,0 0,1.5 0,1.5 -1.5,0 -1.5,0 0,1.5 0,1.5 -12,0 -12,0 0,-1.5 z m 24,-3 0,-1.5 1.5,0 1.5,0 0,-3 0,-3 -1.5,0 -1.5,0 0,-1.5 0,-1.5 -12,0 -12,0 0,1.5 0,1.5 -1.5,0 -1.5,0 0,3 0,3 1.5,0 1.5,0 0,1.5 0,1.5 12,0 12,0 0,-1.5 z m 9,-15 0,-1.5 1.5,0 1.5,0 0,-1.5 0,-1.5 1.5,0 1.5,0 0,-1.5 0,-1.5 -1.5,0 -1.5,0 0,1.5 0,1.5 -21,0 -21,0 0,1.5 0,1.5 1.5,0 1.5,0 0,1.5 0,1.5 18,0 18,0 0,-1.5 z m 12,-18 0,-4.5 -1.5,0 -1.5,0 0,-1.5 0,-1.5 -1.5,0 -1.5,0 0,-1.5 0,-1.5 -6,0 -6,0 0,1.5 0,1.5 4.5,0 4.5,0 0,1.5 0,1.5 1.5,0 1.5,0 0,3 0,3 1.5,0 1.5,0 0,1.5 0,1.5 1.5,0 1.5,0 0,-4.5 z m -24,-3 0,-1.5 -3,0 -3,0 0,-1.5 0,-1.5 -3,0 -3,0 0,-1.5 0,-1.5 -3,0 -3,0 0,-1.5 0,-1.5 -1.5,0 -1.5,0 0,-1.5 0,-1.5 -7.5,0 -7.5,0 0,1.5 0,1.5 7.5,0 7.5,0 0,1.5 0,1.5 1.5,0 1.5,0 0,1.5 0,1.5 3,0 3,0 0,1.5 0,1.5 3,0 3,0 0,1.5 0,1.5 3,0 3,0 0,-1.5 z m 0,-9 0,-1.5 3,0 3,0 0,-1.5 0,-1.5 -10.5,0 -10.5,0 0,1.5 0,1.5 4.5,0 4.5,0 0,1.5 0,1.5 3,0 3,0 0,-1.5 z"
         id="path3105"
         style="fill:#81493e" />
      <path
         d="m 362.14725,531.85962 0,-1.5 -1.5,0 -1.5,0 0,-1.5 0,-1.5 -1.5,0 -1.5,0 0,-1.5 0,-1.5 -1.5,0 -1.5,0 0,-1.5 0,-1.5 -1.5,0 -1.5,0 0,-3 0,-3 -1.5,0 -1.5,0 0,-1.5 0,-1.5 -1.5,0 -1.5,0 0,-4.5 0,-4.5 1.5,0 1.5,0 0,-1.5 0,-1.5 1.5,0 1.5,0 0,-1.5 0,-1.5 1.5,0 1.5,0 0,-1.5 0,-1.5 1.5,0 1.5,0 0,-1.5 0,-1.5 7.5,0 7.5,0 0,1.5 0,1.5 3,0 3,0 0,-1.5 0,-1.5 10.5,0 10.5,0 0,1.5 0,1.5 3,0 3,0 0,1.5 0,1.5 3,0 3,0 0,1.5 0,1.5 1.5,0 1.5,0 0,1.5 0,1.5 1.5,0 1.5,0 0,1.5 0,1.5 1.5,0 1.5,0 0,4.5 0,4.5 -1.5,0 -1.5,0 0,3 0,3 -1.5,0 -1.5,0 0,1.5 0,1.5 -1.5,0 -1.5,0 0,1.5 0,1.5 -1.5,0 -1.5,0 0,1.5 0,1.5 -1.5,0 -1.5,0 0,1.5 0,1.5 -21,0 -21,0 0,-1.5 z m 42,-3 0,-1.5 1.5,0 1.5,0 0,-1.5 0,-1.5 1.5,0 1.5,0 0,-1.5 0,-1.5 -1.5,0 -1.5,0 0,1.5 0,1.5 -21,0 -21,0 0,1.5 0,1.5 1.5,0 1.5,0 0,1.5 0,1.5 18,0 18,0 0,-1.5 z m 12,-18 0,-4.5 -1.5,0 -1.5,0 0,-1.5 0,-1.5 -1.5,0 -1.5,0 0,-1.5 0,-1.5 -6,0 -6,0 0,1.5 0,1.5 4.5,0 4.5,0 0,1.5 0,1.5 1.5,0 1.5,0 0,3 0,3 1.5,0 1.5,0 0,1.5 0,1.5 1.5,0 1.5,0 0,-4.5 z m -24,-3 0,-1.5 -3,0 -3,0 0,-1.5 0,-1.5 -3,0 -3,0 0,-1.5 0,-1.5 -3,0 -3,0 0,-1.5 0,-1.5 -1.5,0 -1.5,0 0,-1.5 0,-1.5 -7.5,0 -7.5,0 0,1.5 0,1.5 7.5,0 7.5,0 0,1.5 0,1.5 1.5,0 1.5,0 0,1.5 0,1.5 3,0 3,0 0,1.5 0,1.5 3,0 3,0 0,1.5 0,1.5 3,0 3,0 0,-1.5 z m 0,-9 0,-1.5 3,0 3,0 0,-1.5 0,-1.5 -10.5,0 -10.5,0 0,1.5 0,1.5 4.5,0 4.5,0 0,1.5 0,1.5 3,0 3,0 0,-1.5 z"
         id="path3103"
         style="fill:#875719" />
      <path
         d="m 362.14725,531.85962 0,-1.5 -1.5,0 -1.5,0 0,-1.5 0,-1.5 -1.5,0 -1.5,0 0,-1.5 0,-1.5 -1.5,0 -1.5,0 0,-1.5 0,-1.5 -1.5,0 -1.5,0 0,-3 0,-3 -1.5,0 -1.5,0 0,-1.5 0,-1.5 -1.5,0 -1.5,0 0,-4.5 0,-4.5 1.5,0 1.5,0 0,-1.5 0,-1.5 1.5,0 1.5,0 0,-1.5 0,-1.5 1.5,0 1.5,0 0,-1.5 0,-1.5 1.5,0 1.5,0 0,-1.5 0,-1.5 7.5,0 7.5,0 0,1.5 0,1.5 3,0 3,0 0,-1.5 0,-1.5 10.5,0 10.5,0 0,1.5 0,1.5 3,0 3,0 0,1.5 0,1.5 3,0 3,0 0,1.5 0,1.5 1.5,0 1.5,0 0,1.5 0,1.5 1.5,0 1.5,0 0,1.5 0,1.5 1.5,0 1.5,0 0,4.5 0,4.5 -1.5,0 -1.5,0 0,3 0,3 -1.5,0 -1.5,0 0,1.5 0,1.5 -1.5,0 -1.5,0 0,1.5 0,1.5 -1.5,0 -1.5,0 0,1.5 0,1.5 -1.5,0 -1.5,0 0,1.5 0,1.5 -21,0 -21,0 0,-1.5 z m 42,-3 0,-1.5 1.5,0 1.5,0 0,-1.5 0,-1.5 1.5,0 1.5,0 0,-1.5 0,-1.5 -1.5,0 -1.5,0 0,1.5 0,1.5 -21,0 -21,0 0,1.5 0,1.5 1.5,0 1.5,0 0,1.5 0,1.5 18,0 18,0 0,-1.5 z m 12,-18 0,-4.5 -1.5,0 -1.5,0 0,-1.5 0,-1.5 -1.5,0 -1.5,0 0,-1.5 0,-1.5 -6,0 -6,0 0,1.5 0,1.5 4.5,0 4.5,0 0,1.5 0,1.5 1.5,0 1.5,0 0,3 0,3 1.5,0 1.5,0 0,1.5 0,1.5 1.5,0 1.5,0 0,-4.5 z m -24,-3 0,-1.5 -3,0 -3,0 0,-1.5 0,-1.5 -3,0 -3,0 0,-1.5 0,-1.5 -3,0 -3,0 0,-1.5 0,-1.5 -1.5,0 -1.5,0 0,-1.5 0,-1.5 -7.5,0 -7.5,0 0,1.5 0,1.5 7.5,0 7.5,0 0,1.5 0,1.5 1.5,0 1.5,0 0,1.5 0,1.5 3,0 3,0 0,1.5 0,1.5 3,0 3,0 0,1.5 0,1.5 3,0 3,0 0,-1.5 z m 0,-7.5 0,-3 3,0 3,0 0,-1.5 0,-1.5 -10.5,0 -10.5,0 0,1.5 0,1.5 4.5,0 4.5,0 0,1.5 0,1.5 1.5,0 1.5,0 0,1.5 0,1.5 1.5,0 1.5,0 0,-3 z"
         id="path3101"
         style="fill:#1c5289" />
      <path
         d="m 362.14725,531.85962 0,-1.5 -1.5,0 -1.5,0 0,-1.5 0,-1.5 -1.5,0 -1.5,0 0,-1.5 0,-1.5 -1.5,0 -1.5,0 0,-1.5 0,-1.5 -1.5,0 -1.5,0 0,-3 0,-3 -1.5,0 -1.5,0 0,-1.5 0,-1.5 -1.5,0 -1.5,0 0,-4.5 0,-4.5 1.5,0 1.5,0 0,-1.5 0,-1.5 1.5,0 1.5,0 0,-1.5 0,-1.5 1.5,0 1.5,0 0,-1.5 0,-1.5 1.5,0 1.5,0 0,-1.5 0,-1.5 7.5,0 7.5,0 0,1.5 0,1.5 3,0 3,0 0,-1.5 0,-1.5 10.5,0 10.5,0 0,1.5 0,1.5 3,0 3,0 0,1.5 0,1.5 3,0 3,0 0,1.5 0,1.5 1.5,0 1.5,0 0,1.5 0,1.5 1.5,0 1.5,0 0,1.5 0,1.5 1.5,0 1.5,0 0,4.5 0,4.5 -1.5,0 -1.5,0 0,3 0,3 -1.5,0 -1.5,0 0,1.5 0,1.5 -1.5,0 -1.5,0 0,1.5 0,1.5 -1.5,0 -1.5,0 0,1.5 0,1.5 -1.5,0 -1.5,0 0,1.5 0,1.5 -21,0 -21,0 0,-1.5 z m 42,-3 0,-1.5 1.5,0 1.5,0 0,-1.5 0,-1.5 1.5,0 1.5,0 0,-1.5 0,-1.5 1.5,0 1.5,0 0,-1.5 0,-1.5 -3,0 -3,0 0,1.5 0,1.5 -24,0 -24,0 0,-1.5 0,-1.5 -3,0 -3,0 0,1.5 0,1.5 1.5,0 1.5,0 0,1.5 0,1.5 1.5,0 1.5,0 0,1.5 0,1.5 1.5,0 1.5,0 0,1.5 0,1.5 21,0 21,0 0,-1.5 z m 12,-18 0,-4.5 -1.5,0 -1.5,0 0,-1.5 0,-1.5 -1.5,0 -1.5,0 0,-1.5 0,-1.5 -6,0 -6,0 0,1.5 0,1.5 -3,0 -3,0 0,1.5 0,1.5 1.5,0 1.5,0 0,1.5 0,1.5 -1.5,0 -1.5,0 0,-1.5 0,-1.5 -3,0 -3,0 0,-1.5 0,-1.5 -3,0 -3,0 0,-1.5 0,-1.5 -3,0 -3,0 0,-1.5 0,-1.5 -1.5,0 -1.5,0 0,-1.5 0,-1.5 -7.5,0 -7.5,0 0,1.5 0,1.5 -1.5,0 -1.5,0 0,1.5 0,1.5 -1.5,0 -1.5,0 0,1.5 0,1.5 -1.5,0 -1.5,0 0,4.5 0,4.5 1.5,0 1.5,0 0,1.5 0,1.5 33,0 33,0 0,-4.5 z m -24,-9 0,-1.5 3,0 3,0 0,-3 0,-3 -10.5,0 -10.5,0 0,1.5 0,1.5 1.5,0 1.5,0 0,1.5 0,1.5 4.5,0 4.5,0 0,1.5 0,1.5 1.5,0 1.5,0 0,-1.5 z"
         id="path3099"
         style="fill:#0e2b49" />
      <path
         d="m 410.14725,522.85962 0,-1.5 1.5,0 1.5,0 0,-1.5 0,-1.5 -3,0 -3,0 0,1.5 0,1.5 -24,0 -24,0 0,-1.5 0,-1.5 -3,0 -3,0 0,1.5 0,1.5 -1.5,0 -1.5,0 0,-3 0,-3 33,0 33,0 0,-4.5 0,-4.5 1.5,0 1.5,0 0,4.5 0,4.5 -1.5,0 -1.5,0 0,3 0,3 -1.5,0 -1.5,0 0,1.5 0,1.5 -1.5,0 -1.5,0 0,-1.5 z"
         id="path3097"
         style="fill:#0e2b48" />
      <path
         d="m 359.14725,519.85962 0,-1.5 -4.5,0 -4.5,0 0,-1.5 0,-1.5 33,0 33,0 0,1.5 0,1.5 -4.5,0 -4.5,0 0,1.5 0,1.5 -24,0 -24,0 0,-1.5 z"
         id="path3095"
         style="fill:#000000" />
    </g>
  </g>
</svg>
