<?xml version="1.0" encoding="utf-8"?> <!-- Generator: IcoMoon.io --> <!DOCTYPE svg PUBLIC "-//W3C//DTD SVG 1.1//EN" "http://www.w3.org/Graphics/SVG/1.1/DTD/svg11.dtd"> <svg width="32" height="32" viewBox="0 0 32 32" xmlns="http://www.w3.org/2000/svg" xmlns:xlink="http://www.w3.org/1999/xlink" fill="#000000"><g><path d="M 16.001,12c 2.203,0, 4,1.795, 4,4s-1.797,4-4,4s-4-1.795-4-4S 13.798,12, 16.001,12 M 16.001,8 c-4.418,0-8,3.582-8,8s 3.582,8, 8,8C 20.419,24, 24,20.418, 24,16S 20.419,8, 16.001,8L 16.001,8zM 14,2A2,2 1440 1 0 18,2A2,2 1440 1 0 14,2zM 4,6A2,2 1440 1 0 8,6A2,2 1440 1 0 4,6zM 2,14c 1.105,0, 2,0.895, 2,2c0,1.107-0.895,2-2,2s-2-0.893-2-2C0,14.895, 0.895,14, 2,14zM 4,26A2,2 1440 1 0 8,26A2,2 1440 1 0 4,26zM 14,30c0-1.109, 0.895-2, 2-2c 1.108,0, 2,0.891, 2,2c0,1.102-0.892,2-2,2C 14.895,32, 14,31.102, 14,30zM 24,26A2,2 1440 1 0 28,26A2,2 1440 1 0 24,26zM 30,18c-1.104,0-2-0.896-2-2c0-1.107, 0.896-2, 2-2s 2,0.893, 2,2C 32,17.104, 31.104,18, 30,18zM 24,6A2,2 1440 1 0 28,6A2,2 1440 1 0 24,6z"></path></g></svg>