<svg xmlns="http://www.w3.org/2000/svg" width="51" height="54"><g transform="translate(-349.42 -453.676)"><path d="M373.42 503.176v-4.5h-3v-3h-9v3h-3v3h-3v-3h3v-3h3v-6h-3v-9h-9v-3h9v-6h3v-6h-3v-3h-3v-3h3v3h3v3h9v-3h3v-9h3v9h3v3h9v-3h3v-3h3v3h-3v3h-3v6h3v6h9v3h-9v9h-3v6h3v3h3v3h-3v-3h-3v-3h-9v3h-3v9h-3v-4.5z" fill="#fefefc"/><path d="M373.42 503.176v-4.5h-3v-3h-9v3h-3v3h-3v-3h3v-3h3v-6h-3v-9h-9v-3h9v-6h3v-6h-3v-3h-3v-3h3v3h3v3h9v-3h3v-9h3v9h3v3h9v-3h3v-3h3v3h-3v3h-3v6h3v6h9v3h-9v9h-3v6h3v3h3v3h-3v-3h-3v-3h-9v3h-3v9h-3v-4.5zm6-12v-1.5h6v-18h-6v-3h-9v3h-3v3h6v3h3v6h-3v3h-6v-3h-3v6h6v3h9v-1.5z" fill="#feeed8"/><path d="M373.42 503.176v-4.5h-3v-3h-9v3h-3v3h-3v-3h3v-3h3v-6h-3v-9h-9v-3h9v-6h3v-6h-3v-3h-3v-3h3v3h3v3h9v-3h3v-9h3v9h3v3h9v-3h3v-3h3v3h-3v3h-3v6h3v6h9v3h-9v9h-3v6h3v3h3v3h-3v-3h-3v-3h-9v3h-3v9h-3v-4.5zm6-12v-1.5h6v-18h-6v-3h-9v3h-6v18h6v3h9v-1.5z" fill="#f1cfa7"/><path d="M373.42 503.176v-4.5h-3v-3h-9v3h-3v3h-3v-3h3v-3h3v-6h-3v-9h-9v-3h9v-6h3v-6h-3v-3h-3v-3h3v3h3v3h9v-3h3v-9h3v9h3v3h9v-3h3v-3h3v3h-3v3h-3v6h3v6h9v3h-9v9h-3v6h3v3h3v3h-3v-3h-3v-3h-9v3h-3v9h-3v-4.5zm6-9v-1.5h6v-3h3v-18h-3v-3h-6v-3h-9v3h-6v3h-3v18h3v3h6v3h9v-1.5z" fill="#a98566"/></g></svg>